<svg width="492" height="38" viewBox="0 0 492 38" fill="none" xmlns="http://www.w3.org/2000/svg">
<path d="M13.3242 0.730469C14.6914 0.730469 16.0195 0.964844 17.3086 1.43359C18.6367 1.90234 19.9062 2.58594 21.1172 3.48438C21.3125 3.67969 21.5273 3.875 21.7617 4.07031C21.957 3.875 22.1719 3.67969 22.4062 3.48438C23.6172 2.58594 24.8672 1.90234 26.1562 1.43359C27.4844 0.964844 28.8125 0.730469 30.1406 0.730469C31.5078 0.730469 32.8359 0.964844 34.125 1.43359C35.4531 1.90234 36.7031 2.60547 37.875 3.54297C39.0859 4.44141 40.1406 5.65234 41.0391 7.17578C41.9766 8.69922 42.4453 10.5156 42.4453 12.625V33.7773C42.2109 36.1211 40.9219 37.3906 38.5781 37.5859C37.4844 37.5859 36.5273 37.2344 35.707 36.5312C34.9258 35.7891 34.5352 34.8711 34.5352 33.7773V13.0938C34.5352 12.1562 34.3594 11.375 34.0078 10.75C33.6562 10.0859 33.2656 9.57812 32.8359 9.22656C32.4062 8.83594 31.957 8.5625 31.4883 8.40625C31.0195 8.21094 30.5508 8.11328 30.082 8.11328C29.6133 8.11328 29.1445 8.21094 28.6758 8.40625C28.2461 8.5625 27.8164 8.83594 27.3867 9.22656C26.957 9.57812 26.5664 10.0859 26.2148 10.75C25.8633 11.375 25.668 12.1562 25.6289 13.0938V33.7773C25.3945 36.1211 24.1055 37.3906 21.7617 37.5859C20.668 37.5859 19.7109 37.2344 18.8906 36.5312C18.1094 35.7891 17.7188 34.8711 17.7188 33.7773V13.0938C17.7188 12.1562 17.543 11.375 17.1914 10.75C16.8398 10.0859 16.4492 9.57812 16.0195 9.22656C15.5898 8.83594 15.1406 8.5625 14.6719 8.40625C14.2031 8.21094 13.7344 8.11328 13.2656 8.11328C12.7969 8.11328 12.3281 8.21094 11.8594 8.40625C11.4297 8.5625 11 8.83594 10.5703 9.22656C10.1406 9.57812 9.75 10.0859 9.39844 10.75C9.04688 11.375 8.85156 12.1562 8.8125 13.0938V33.7773C8.61719 36.1211 7.34766 37.3906 5.00391 37.5859C3.91016 37.5859 2.95312 37.2344 2.13281 36.5312C1.35156 35.7891 0.960938 34.8711 0.960938 33.7773V12.625C1.03906 10.5156 1.52734 8.69922 2.42578 7.17578C3.32422 5.65234 4.37891 4.44141 5.58984 3.54297C6.80078 2.60547 8.05078 1.90234 9.33984 1.43359C10.668 0.964844 11.9961 0.730469 13.3242 0.730469ZM63.0117 27.8008C63.0117 26.707 63.3828 25.7891 64.125 25.0469C64.9062 24.2656 65.8438 23.875 66.9375 23.875H75.9023L74.3789 19.5391C73.7539 17.9375 73.1289 16.4336 72.5039 15.0273C71.918 13.582 71.2344 12.2734 70.4531 11.1016C69.75 9.92969 68.9492 9.30469 68.0508 9.22656C67.1133 9.30469 66.2734 9.92969 65.5312 11.1016C64.7891 12.2734 64.1055 13.582 63.4805 15.0273C62.8945 16.4336 62.2891 17.9375 61.6641 19.5391L56.0977 34.7734C55.707 35.5938 55.1992 36.2773 54.5742 36.8242C53.9883 37.332 53.0898 37.5859 51.8789 37.5859C50.7461 37.5859 49.8086 37.1953 49.0664 36.4141C48.3633 35.6328 48.0508 34.6953 48.1289 33.6016C48.168 33.0938 48.2852 32.625 48.4805 32.1953L54.9258 15.5547C56.7227 11.1797 58.5195 7.64453 60.3164 4.94922C62.0742 2.29297 64.6523 0.945312 68.0508 0.90625C71.4102 0.945312 73.9688 2.29297 75.7266 4.94922C77.5234 7.56641 79.3203 11.1016 81.1172 15.5547L87.5625 32.1953C87.7578 32.625 87.875 33.0938 87.9141 33.6016C87.9922 34.6953 87.6602 35.6328 86.918 36.4141C86.2148 37.1953 85.2969 37.5859 84.1641 37.5859C82.875 37.5859 81.918 37.332 81.293 36.8242C80.707 36.2773 80.2188 35.5938 79.8281 34.7734L78.7148 31.7266H66.9375C65.8438 31.7266 64.9258 31.3359 64.1836 30.5547C63.4023 29.8125 63.0117 28.8945 63.0117 27.8008ZM104.906 2.3125H129.633C130.727 2.35156 131.625 2.76172 132.328 3.54297C133.07 4.32422 133.441 5.26172 133.441 6.35547C133.246 8.69922 131.977 9.96875 129.633 10.1641H106.898C105.414 10.2422 104.184 10.8086 103.207 11.8633C102.23 12.918 101.508 14.1289 101.039 15.4961C100.609 16.8242 100.395 18.1914 100.395 19.5977C100.395 21.0039 100.609 22.3906 101.039 23.7578C101.508 25.0859 102.23 26.2773 103.207 27.332C104.184 28.3867 105.414 28.9531 106.898 29.0312H124.711C125.414 28.9922 125.785 28.6016 125.824 27.8594V24.4609C125.785 23.6797 125.414 23.2891 124.711 23.2891H109.711C108.617 23.2891 107.68 22.918 106.898 22.1758C106.156 21.3945 105.785 20.457 105.785 19.3633C105.785 18.2695 106.156 17.332 106.898 16.5508C107.68 15.8086 108.617 15.4375 109.711 15.4375H129.75C130.844 15.4375 131.781 15.8086 132.562 16.5508C133.266 17.293 133.637 18.1914 133.676 19.2461V19.3633V33.0742C133.637 34.1289 133.266 35.0078 132.562 35.7109C131.82 36.4531 130.922 36.8438 129.867 36.8828H104.906C102.172 36.7266 99.9062 35.6914 98.1094 33.7773C96.3516 31.8242 95.082 29.6172 94.3008 27.1562C93.5586 24.6953 93.1875 22.1758 93.1875 19.5977C93.1875 17.0195 93.5781 14.5 94.3594 12.0391C95.1406 9.57812 96.4102 7.39062 98.168 5.47656C99.9258 3.52344 102.172 2.46875 104.906 2.3125ZM159.633 0.730469C161.664 0.730469 163.656 0.964844 165.609 1.43359C167.602 1.90234 169.496 2.60547 171.293 3.54297C173.09 4.44141 174.672 5.65234 176.039 7.17578C177.445 8.69922 178.207 10.5156 178.324 12.625V15.0859V33.7773C178.09 36.1211 176.801 37.3906 174.457 37.5859C173.363 37.5859 172.406 37.2344 171.586 36.5312C170.805 35.7891 170.414 34.8711 170.414 33.7773V14.4414C170.336 13.2305 169.867 12.2344 169.008 11.4531C168.188 10.6328 167.25 9.98828 166.195 9.51953C165.18 9.05078 164.105 8.69922 162.973 8.46484C161.879 8.23047 160.766 8.11328 159.633 8.11328C158.5 8.11328 157.367 8.23047 156.234 8.46484C155.141 8.69922 154.066 9.05078 153.012 9.51953C151.996 9.98828 151.059 10.6328 150.199 11.4531C149.379 12.2344 148.93 13.2305 148.852 14.4414V33.7773C148.656 36.1211 147.387 37.3906 145.043 37.5859C143.949 37.5859 142.992 37.2344 142.172 36.5312C141.391 35.7891 141 34.8711 141 33.7773V15.0859V12.625C141.117 10.5156 141.859 8.69922 143.227 7.17578C144.594 5.65234 146.176 4.44141 147.973 3.54297C149.77 2.60547 151.645 1.90234 153.598 1.43359C155.59 0.964844 157.602 0.730469 159.633 0.730469ZM196.605 2.3125H199.301H219.223C220.316 2.35156 221.215 2.76172 221.918 3.54297C222.66 4.32422 223.031 5.26172 223.031 6.35547C222.836 8.69922 221.566 9.96875 219.223 10.1641H198.598C197.113 10.2422 195.883 10.8086 194.906 11.8633C193.93 12.918 193.207 14.1289 192.738 15.4961C192.309 16.8242 192.094 18.1914 192.094 19.5977C192.094 21.0039 192.309 22.3906 192.738 23.7578C193.207 25.0859 193.93 26.2773 194.906 27.332C195.883 28.3867 197.113 28.9531 198.598 29.0312H219.223C220.316 29.0703 221.215 29.4805 221.918 30.2617C222.66 31.043 223.031 31.9805 223.031 33.0742C222.992 34.1289 222.602 35.0273 221.859 35.7695C221.156 36.4727 220.277 36.8438 219.223 36.8828H197.719H196.605C193.871 36.7266 191.605 35.6914 189.809 33.7773C188.051 31.8242 186.781 29.6172 186 27.1562C185.258 24.6953 184.887 22.1758 184.887 19.5977C184.887 17.0195 185.277 14.5 186.059 12.0391C186.84 9.57812 188.109 7.39062 189.867 5.47656C191.625 3.52344 193.871 2.46875 196.605 2.3125ZM222.914 19.3633C222.914 20.457 222.523 21.375 221.742 22.1172C221 22.8984 220.082 23.2891 218.988 23.2891H201.293C200.199 23.2891 199.262 22.918 198.48 22.1758C197.738 21.3945 197.367 20.457 197.367 19.3633C197.367 18.2695 197.738 17.332 198.48 16.5508C199.262 15.8086 200.199 15.4375 201.293 15.4375H218.988C220.082 15.4375 221 15.8281 221.742 16.6094C222.523 17.3516 222.914 18.2695 222.914 19.3633ZM227.777 6.23828C227.777 5.14453 228.148 4.22656 228.891 3.48438C229.672 2.70312 230.609 2.3125 231.703 2.3125H265.805C266.898 2.3125 267.836 2.68359 268.617 3.42578C269.359 4.20703 269.73 5.14453 269.73 6.23828C269.73 7.33203 269.34 8.26953 268.559 9.05078C267.816 9.79297 266.898 10.1641 265.805 10.1641H252.738V33.8945C252.504 36.2383 251.215 37.5078 248.871 37.7031C247.777 37.7031 246.82 37.3516 246 36.6484C245.219 35.9062 244.828 34.9883 244.828 33.8945V10.1641H231.703C230.609 10.1641 229.691 9.77344 228.949 8.99219C228.168 8.25 227.777 7.33203 227.777 6.23828ZM307.348 2.3125C309.34 2.35156 311.117 2.97656 312.68 4.1875C314.242 5.39844 315.492 6.84375 316.43 8.52344C317.406 10.2031 318.129 11.9805 318.598 13.8555C319.066 15.7305 319.301 17.6445 319.301 19.5977C319.301 22.1758 318.891 24.7148 318.07 27.2148C317.289 29.6758 315.98 31.8633 314.145 33.7773C312.348 35.6914 310.082 36.7266 307.348 36.8828H286.898C284.164 36.7656 281.879 35.75 280.043 33.8359C278.207 31.9219 276.898 29.7148 276.117 27.2148C275.375 24.7148 275.004 22.1758 275.004 19.5977C275.004 17.0195 275.395 14.5 276.176 12.0391C276.957 9.53906 278.246 7.33203 280.043 5.41797C281.879 3.46484 284.164 2.42969 286.898 2.3125H288.012H306.234H307.348ZM305.355 29.0312C306.84 28.9531 308.07 28.4062 309.047 27.3906C310.062 26.3359 310.785 25.125 311.215 23.7578C311.645 22.3906 311.859 21.0039 311.859 19.5977C311.859 18.1914 311.625 16.8242 311.156 15.4961C310.727 14.1289 310.023 12.918 309.047 11.8633C308.07 10.8086 306.84 10.2422 305.355 10.1641H288.715C287.23 10.2422 286 10.8086 285.023 11.8633C284.047 12.918 283.324 14.1289 282.855 15.4961C282.426 16.8242 282.211 18.1914 282.211 19.5977C282.211 21.0039 282.426 22.3906 282.855 23.7578C283.285 25.125 283.988 26.3359 284.965 27.3906C285.98 28.4062 287.23 28.9531 288.715 29.0312H305.355ZM394.77 21.4141C395.512 22.9766 395.883 24.5586 395.883 26.1602C395.883 27.7227 395.492 29.2852 394.711 30.8477C393.93 32.3711 392.66 33.7383 390.902 34.9492C389.145 36.1211 386.898 36.707 384.164 36.707H383.812C383.578 36.7461 383.344 36.7656 383.109 36.7656H359.555C358.5 36.7266 357.602 36.3555 356.859 35.6523C356.156 34.9102 355.785 34.0117 355.746 32.957V6.12109C355.785 5.06641 356.156 4.1875 356.859 3.48438C357.602 2.74219 358.5 2.35156 359.555 2.3125H379.711C379.945 2.3125 380.18 2.33203 380.414 2.37109H380.766C383.5 2.44922 385.746 3.07422 387.504 4.24609C389.262 5.41797 390.531 6.76562 391.312 8.28906C392.094 9.77344 392.484 11.2773 392.484 12.8008C392.484 14.3633 392.113 15.8867 391.371 17.3711C391.332 17.4492 391.293 17.5078 391.254 17.5469C392.855 18.6797 394.027 19.9688 394.77 21.4141ZM384.516 28.9141C385.258 28.9531 385.863 28.8164 386.332 28.5039C386.84 28.1914 387.211 27.8398 387.445 27.4492C387.68 27.0195 387.797 26.5898 387.797 26.1602C387.797 25.8867 387.68 25.5156 387.445 25.0469C387.211 24.5391 386.84 24.1289 386.332 23.8164C385.863 23.5039 385.258 23.3281 384.516 23.2891H380.766H363.656V27.332C363.656 28.3867 364.203 28.9141 365.297 28.9141H365.766H384.516ZM382.992 14.9102C383.461 14.6367 383.812 14.3242 384.047 13.9727C384.281 13.582 384.398 13.1914 384.398 12.8008C384.398 12.4102 384.281 12.0391 384.047 11.6875C383.812 11.2969 383.441 10.9648 382.934 10.6914C382.465 10.3789 381.859 10.2031 381.117 10.1641H365.297C364.203 10.1641 363.656 10.6914 363.656 11.7461V15.4375H381.117C381.859 15.3984 382.484 15.2227 382.992 14.9102ZM409.828 33.7773C409.594 36.1211 408.305 37.3906 405.961 37.5859C404.867 37.5859 403.91 37.2344 403.09 36.5312C402.309 35.7891 401.918 34.8711 401.918 33.7773V6.12109C401.957 5.02734 402.367 4.12891 403.148 3.42578C403.93 2.68359 404.867 2.3125 405.961 2.3125H430.57C434.008 2.42969 436.605 3.19141 438.363 4.59766C440.121 5.96484 441.391 7.52734 442.172 9.28516C442.953 11.043 443.344 12.8203 443.344 14.6172C443.344 16.4922 442.953 18.3086 442.172 20.0664C441.43 21.8242 440.16 23.4062 438.363 24.8125C436.605 26.1797 434.359 26.8438 431.625 26.8047H416.859C415.766 26.8047 414.848 26.4141 414.105 25.6328C413.324 24.8906 412.934 23.9727 412.934 22.8789C412.934 21.7852 413.305 20.8672 414.047 20.125C414.828 19.3438 415.766 18.9531 416.859 18.9531H431.977C432.719 18.9531 433.324 18.7188 433.793 18.25C434.301 17.7422 434.672 17.1758 434.906 16.5508C435.141 15.8867 435.258 15.2227 435.258 14.5586C435.258 13.9336 435.141 13.3086 434.906 12.6836C434.672 12.0195 434.301 11.4531 433.793 10.9844C433.324 10.4766 432.719 10.2031 431.977 10.1641H411.352C410.336 10.2031 409.828 10.7109 409.828 11.6875V33.7773ZM461.977 0.730469C463.344 0.730469 464.672 0.964844 465.961 1.43359C467.289 1.90234 468.559 2.58594 469.77 3.48438C469.965 3.67969 470.18 3.875 470.414 4.07031C470.609 3.875 470.824 3.67969 471.059 3.48438C472.27 2.58594 473.52 1.90234 474.809 1.43359C476.137 0.964844 477.465 0.730469 478.793 0.730469C480.16 0.730469 481.488 0.964844 482.777 1.43359C484.105 1.90234 485.355 2.60547 486.527 3.54297C487.738 4.44141 488.793 5.65234 489.691 7.17578C490.629 8.69922 491.098 10.5156 491.098 12.625V33.7773C490.863 36.1211 489.574 37.3906 487.23 37.5859C486.137 37.5859 485.18 37.2344 484.359 36.5312C483.578 35.7891 483.188 34.8711 483.188 33.7773V13.0938C483.188 12.1562 483.012 11.375 482.66 10.75C482.309 10.0859 481.918 9.57812 481.488 9.22656C481.059 8.83594 480.609 8.5625 480.141 8.40625C479.672 8.21094 479.203 8.11328 478.734 8.11328C478.266 8.11328 477.797 8.21094 477.328 8.40625C476.898 8.5625 476.469 8.83594 476.039 9.22656C475.609 9.57812 475.219 10.0859 474.867 10.75C474.516 11.375 474.32 12.1562 474.281 13.0938V33.7773C474.047 36.1211 472.758 37.3906 470.414 37.5859C469.32 37.5859 468.363 37.2344 467.543 36.5312C466.762 35.7891 466.371 34.8711 466.371 33.7773V13.0938C466.371 12.1562 466.195 11.375 465.844 10.75C465.492 10.0859 465.102 9.57812 464.672 9.22656C464.242 8.83594 463.793 8.5625 463.324 8.40625C462.855 8.21094 462.387 8.11328 461.918 8.11328C461.449 8.11328 460.98 8.21094 460.512 8.40625C460.082 8.5625 459.652 8.83594 459.223 9.22656C458.793 9.57812 458.402 10.0859 458.051 10.75C457.699 11.375 457.504 12.1562 457.465 13.0938V33.7773C457.27 36.1211 456 37.3906 453.656 37.5859C452.562 37.5859 451.605 37.2344 450.785 36.5312C450.004 35.7891 449.613 34.8711 449.613 33.7773V12.625C449.691 10.5156 450.18 8.69922 451.078 7.17578C451.977 5.65234 453.031 4.44141 454.242 3.54297C455.453 2.60547 456.703 1.90234 457.992 1.43359C459.32 0.964844 460.648 0.730469 461.977 0.730469Z" fill="#2B2B2B"/>
</svg>