<svg width="285" height="501" viewBox="0 0 485 501" fill="none" xmlns="http://www.w3.org/2000/svg">
<g opacity="0.08">
<circle cx="105.733" cy="97.4405" r="20.9359" transform="rotate(-41.7836 105.733 97.4405)" fill="#6349FF"/>
<circle cx="454.618" cy="335.122" r="16.9359" transform="rotate(-41.7836 454.618 335.122)" fill="#6349FF" stroke="#6349FF" stroke-width="8"/>
<circle cx="20.9359" cy="20.9359" r="16.9359" transform="matrix(-0.745666 0.666319 0.666319 0.745666 304.49 441.197)" fill="#6349FF" stroke="#6349FF" stroke-width="8"/>
<circle cx="378.724" cy="402.939" r="16.9359" transform="rotate(-41.7836 378.724 402.939)" fill="#6349FF" stroke="#6349FF" stroke-width="8"/>
<path d="M176.954 177.72C177.505 177.751 177.978 177.329 178.009 176.778L178.514 167.792C178.545 167.241 178.123 166.769 177.571 166.738C177.02 166.707 176.548 167.129 176.517 167.68L176.068 175.667L168.08 175.219C167.529 175.188 167.057 175.609 167.026 176.161C166.995 176.712 167.417 177.184 167.968 177.215L176.954 177.72ZM119.177 113.502L176.264 177.388L177.756 176.056L120.668 112.17L119.177 113.502Z" fill="#6349FF"/>
<rect x="288.083" y="329.869" width="27.4776" height="27.4776" rx="5" transform="rotate(-86.7836 288.083 329.869)" fill="#6349FF"/>
<line x1="317.05" y1="302.502" x2="377.574" y2="248.419" stroke="#6349FF" stroke-width="2"/>
<line y1="-1" x2="81.167" y2="-1" transform="matrix(-0.745666 0.666319 0.666319 0.745666 286.924 331.629)" stroke="#6349FF" stroke-width="2"/>
<path d="M437.848 316.932C438.399 316.963 438.871 316.542 438.902 315.99L439.407 307.004C439.438 306.453 439.016 305.981 438.465 305.95C437.914 305.919 437.441 306.341 437.41 306.892L436.962 314.88L428.974 314.431C428.423 314.4 427.951 314.822 427.92 315.373C427.889 315.924 428.311 316.397 428.862 316.428L437.848 316.932ZM377.495 249.832L437.158 316.6L438.65 315.268L378.986 248.5L377.495 249.832Z" fill="#6349FF"/>
<path d="M286.633 452.055C286.602 452.606 286.129 453.028 285.578 452.997L276.592 452.492C276.041 452.461 275.619 451.989 275.65 451.438C275.681 450.886 276.153 450.464 276.704 450.495L284.692 450.944L285.141 442.957C285.172 442.405 285.644 441.983 286.195 442.014C286.747 442.045 287.168 442.517 287.137 443.069L286.633 452.055ZM227.146 385.045L286.38 451.332L284.888 452.665L225.654 386.377L227.146 385.045Z" fill="#6349FF"/>
<path d="M361.953 384.749C362.504 384.78 362.976 384.358 363.007 383.807L363.512 374.821C363.543 374.269 363.122 373.797 362.57 373.766C362.019 373.735 361.547 374.157 361.516 374.709L361.067 382.696L353.079 382.247C352.528 382.216 352.056 382.638 352.025 383.19C351.994 383.741 352.416 384.213 352.967 384.244L361.953 384.749ZM315.765 333.5L361.263 384.417L362.755 383.084L317.256 332.168L315.765 333.5Z" fill="#6349FF"/>
<path d="M287.267 301.17C287.818 301.201 288.29 300.779 288.321 300.227L288.826 291.241C288.857 290.69 288.435 290.218 287.884 290.187C287.332 290.156 286.86 290.578 286.829 291.129L286.38 299.117L278.393 298.668C277.841 298.637 277.369 299.059 277.338 299.61C277.307 300.161 277.729 300.634 278.281 300.665L287.267 301.17ZM236.357 244.637L286.577 300.837L288.068 299.505L237.848 243.304L236.357 244.637Z" fill="#6349FF"/>
<rect x="133.043" y="220.33" width="123.039" height="83.7438" rx="10" transform="rotate(-41.7836 133.043 220.33)" fill="#6349FF"/>
</g>
</svg>
